<svg viewBox="-2000 -2000 6000 6000" fill="white" fill-opacity="0" width="1000" height="1000" xmlns="http://www.w3.org/2000/svg" version="1.1"><path d="M500 300 499 301 498 301 497 301 496 301 495 301 494 301 493 301 492 301 491 301 490 301 489 301 488 301 487 301 486 301 485 301 484 301 483 301 482 301 481 301 480 302 479 302 478 302 477 302 476 302 475 302 474 302 473 302 472 302 471 303 470 303 469 303 468 303 467 303 466 303 465 304 464 304 463 304 462 304 461 304 460 305 459 305 458 305 457 305 456 305 455 306 454 306 453 306 452 306 451 307 450 307 449 307 448 307 447 308 446 308 445 308 444 308 443 309 442 309 441 309 440 310 439 310 438 310 437 311 436 311 435 311 434 312 433 312 432 312 431 313 430 313 429 314 428 314 427 314 426 315 425 315 424 316 423 316 422 316 421 317 420 317 419 318 418 318 417 319 416 319 415 319 414 320 413 320 412 321 411 321 410 322 409 322 408 323 407 323 406 324 405 325 404 325 403 326 402 326 401 327 400 327 399 328 398 328 397 329 396 330 395 330 394 331 393 332 392 332 391 333 390 333 389 334 388 335 387 335 386 336 385 337 384 338 383 338 382 339 381 340 380 340 379 341 378 342 377 343 376 344 375 344 374 345 373 346 372 347 371 348 370 349 369 349 368 350 367 351 366 352 365 353 364 354 363 355 362 356 361 357 360 358 359 359 358 360 357 361 356 362 355 363 354 364 353 365 352 366 351 367 350 368 349 369 349 370 348 371 347 372 346 373 345 374 344 375 344 376 343 377 342 378 341 379 340 380 340 381 339 382 338 383 338 384 337 385 336 386 335 387 335 388 334 389 333 390 333 391 332 392 332 393 331 394 330 395 330 396 329 397 328 398 328 399 327 400 327 401 326 402 326 403 325 404 325 405 324 406 323 407 323 408 322 409 322 410 321 411 321 412 320 413 320 414 319 415 319 416 319 417 318 418 318 419 317 420 317 421 316 422 316 423 316 424 315 425 315 426 314 427 314 428 314 429 313 430 313 431 312 432 312 433 312 434 311 435 311 436 311 437 310 438 310 439 310 440 309 441 309 442 309 443 308 444 308 445 308 446 308 447 307 448 307 449 307 450 307 451 306 452 306 453 306 454 306 455 305 456 305 457 305 458 305 459 305 460 304 461 304 462 304 463 304 464 304 465 303 466 303 467 303 468 303 469 303 470 303 471 302 472 302 473 302 474 302 475 302 476 302 477 302 478 302 479 302 480 301 481 301 482 301 483 301 484 301 485 301 486 301 487 301 488 301 489 301 490 301 491 301 492 301 493 301 494 301 495 301 496 301 497 301 498 301 499 300 500 301 501 301 502 301 503 301 504 301 505 301 506 301 507 301 508 301 509 301 510 301 511 301 512 301 513 301 514 301 515 301 516 301 517 301 518 301 519 302 520 302 521 302 522 302 523 302 524 302 525 302 526 302 527 302 528 303 529 303 530 303 531 303 532 303 533 303 534 304 535 304 536 304 537 304 538 304 539 305 540 305 541 305 542 305 543 305 544 306 545 306 546 306 547 306 548 307 549 307 550 307 551 307 552 308 553 308 554 308 555 308 556 309 557 309 558 309 559 310 560 310 561 310 562 311 563 311 564 311 565 312 566 312 567 312 568 313 569 313 570 314 571 314 572 314 573 315 574 315 575 316 576 316 577 316 578 317 579 317 580 318 581 318 582 319 583 319 584 319 585 320 586 320 587 321 588 321 589 322 590 322 591 323 592 323 593 324 594 325 595 325 596 326 597 326 598 327 599 327 600 328 601 328 602 329 603 330 604 330 605 331 606 332 607 332 608 333 609 333 610 334 611 335 612 335 613 336 614 337 615 338 616 338 617 339 618 340 619 340 620 341 621 342 622 343 623 344 624 344 625 345 626 346 627 347 628 348 629 349 630 349 631 350 632 351 633 352 634 353 635 354 636 355 637 356 638 357 639 358 640 359 641 360 642 361 643 362 644 363 645 364 646 365 647 366 648 367 649 368 650 369 651 370 651 371 652 372 653 373 654 374 655 375 656 376 656 377 657 378 658 379 659 380 660 381 660 382 661 383 662 384 662 385 663 386 664 387 665 388 665 389 666 390 667 391 667 392 668 393 668 394 669 395 670 396 670 397 671 398 672 399 672 400 673 401 673 402 674 403 674 404 675 405 675 406 676 407 677 408 677 409 678 410 678 411 679 412 679 413 680 414 680 415 681 416 681 417 681 418 682 419 682 420 683 421 683 422 684 423 684 424 684 425 685 426 685 427 686 428 686 429 686 430 687 431 687 432 688 433 688 434 688 435 689 436 689 437 689 438 690 439 690 440 690 441 691 442 691 443 691 444 692 445 692 446 692 447 692 448 693 449 693 450 693 451 693 452 694 453 694 454 694 455 694 456 695 457 695 458 695 459 695 460 695 461 696 462 696 463 696 464 696 465 696 466 697 467 697 468 697 469 697 470 697 471 697 472 698 473 698 474 698 475 698 476 698 477 698 478 698 479 698 480 698 481 699 482 699 483 699 484 699 485 699 486 699 487 699 488 699 489 699 490 699 491 699 492 699 493 699 494 699 495 699 496 699 497 699 498 699 499 699 500 700 501 699 502 699 503 699 504 699 505 699 506 699 507 699 508 699 509 699 510 699 511 699 512 699 513 699 514 699 515 699 516 699 517 699 518 699 519 699 520 698 521 698 522 698 523 698 524 698 525 698 526 698 527 698 528 698 529 697 530 697 531 697 532 697 533 697 534 697 535 696 536 696 537 696 538 696 539 696 540 695 541 695 542 695 543 695 544 695 545 694 546 694 547 694 548 694 549 693 550 693 551 693 552 693 553 692 554 692 555 692 556 692 557 691 558 691 559 691 560 690 561 690 562 690 563 689 564 689 565 689 566 688 567 688 568 688 569 687 570 687 571 686 572 686 573 686 574 685 575 685 576 684 577 684 578 684 579 683 580 683 581 682 582 682 583 681 584 681 585 681 586 680 587 680 588 679 589 679 590 678 591 678 592 677 593 677 594 676 595 675 596 675 597 674 598 674 599 673 600 673 601 672 602 672 603 671 604 670 605 670 606 669 607 668 608 668 609 667 610 667 611 666 612 665 613 665 614 664 615 663 616 662 617 662 618 661 619 660 620 660 621 659 622 658 623 657 624 656 625 656 626 655 627 654 628 653 629 652 630 651 631 651 632 650 633 649 634 648 635 647 636 646 637 645 638 644 639 643 640 642 641 641 642 640 643 639 644 638 645 637 646 636 647 635 648 634 649 633 650 632 651 631 651 630 652 629 653 628 654 627 655 626 656 625 656 624 657 623 658 622 659 621 660 620 660 619 661 618 662 617 662 616 663 615 664 614 665 613 665 612 666 611 667 610 667 609 668 608 668 607 669 606 670 605 670 604 671 603 672 602 672 601 673 600 673 599 674 598 674 597 675 596 675 595 676 594 677 593 677 592 678 591 678 590 679 589 679 588 680 587 680 586 681 585 681 584 681 583 682 582 682 581 683 580 683 579 684 578 684 577 684 576 685 575 685 574 686 573 686 572 686 571 687 570 687 569 688 568 688 567 688 566 689 565 689 564 689 563 690 562 690 561 690 560 691 559 691 558 691 557 692 556 692 555 692 554 692 553 693 552 693 551 693 550 693 549 694 548 694 547 694 546 694 545 695 544 695 543 695 542 695 541 695 540 696 539 696 538 696 537 696 536 696 535 697 534 697 533 697 532 697 531 697 530 697 529 698 528 698 527 698 526 698 525 698 524 698 523 698 522 698 521 698 520 699 519 699 518 699 517 699 516 699 515 699 514 699 513 699 512 699 511 699 510 699 509 699 508 699 507 699 506 699 505 699 504 699 503 699 502 699 501 700 500 699 499 699 498 699 497 699 496 699 495 699 494 699 493 699 492 699 491 699 490 699 489 699 488 699 487 699 486 699 485 699 484 699 483 699 482 699 481 698 480 698 479 698 478 698 477 698 476 698 475 698 474 698 473 698 472 697 471 697 470 697 469 697 468 697 467 697 466 696 465 696 464 696 463 696 462 696 461 695 460 695 459 695 458 695 457 695 456 694 455 694 454 694 453 694 452 693 451 693 450 693 449 693 448 692 447 692 446 692 445 692 444 691 443 691 442 691 441 690 440 690 439 690 438 689 437 689 436 689 435 688 434 688 433 688 432 687 431 687 430 686 429 686 428 686 427 685 426 685 425 684 424 684 423 684 422 683 421 683 420 682 419 682 418 681 417 681 416 681 415 680 414 680 413 679 412 679 411 678 410 678 409 677 408 677 407 676 406 675 405 675 404 674 403 674 402 673 401 673 400 672 399 672 398 671 397 670 396 670 395 669 394 668 393 668 392 667 391 667 390 666 389 665 388 665 387 664 386 663 385 662 384 662 383 661 382 660 381 660 380 659 379 658 378 657 377 656 376 656 375 655 374 654 373 653 372 652 371 651 370 651 369 650 368 649 367 648 366 647 365 646 364 645 363 644 362 643 361 642 360 641 359 640 358 639 357 638 356 637 355 636 354 635 353 634 352 633 351 632 350 631 349 630 349 629 348 628 347 627 346 626 345 625 344 624 344 623 343 622 342 621 341 620 340 619 340 618 339 617 338 616 338 615 337 614 336 613 335 612 335 611 334 610 333 609 333 608 332 607 332 606 331 605 330 604 330 603 329 602 328 601 328 600 327 599 327 598 326 597 326 596 325 595 325 594 324 593 323 592 323 591 322 590 322 589 321 588 321 587 320 586 320 585 319 584 319 583 319 582 318 581 318 580 317 579 317 578 316 577 316 576 316 575 315 574 315 573 314 572 314 571 314 570 313 569 313 568 312 567 312 566 312 565 311 564 311 563 311 562 310 561 310 560 310 559 309 558 309 557 309 556 308 555 308 554 308 553 308 552 307 551 307 550 307 549 307 548 306 547 306 546 306 545 306 544 305 543 305 542 305 541 305 540 305 539 304 538 304 537 304 536 304 535 304 534 303 533 303 532 303 531 303 530 303 529 303 528 302 527 302 526 302 525 302 524 302 523 302 522 302 521 302 520 302 519 301 518 301 517 301 516 301 515 301 514 301 513 301 512 301 511 301 510 301 509 301 508 301 507 301 506 301 505 301 504 301 503 301 502 301 501 301 " stroke ="green" stroke-width="5"/></svg>