<svg viewBox="-2000 -2000 6000 6000" fill="white" fill-opacity="0" width="1000" height="1000" xmlns="http://www.w3.org/2000/svg" version="1.1"><path d="M10 50 11 51 12 51 13 52 14 52 15 53 16 53 17 54 18 54 19 55 20 56 21 56 22 57 23 57 24 58 25 58 26 59 27 59 28 60 29 61 30 61 31 62 32 62 33 63 34 63 35 64 36 64 37 65 38 66 39 66 40 67 41 67 42 68 43 68 44 69 45 69 46 70 47 71 48 71 49 72 50 72 51 73 52 73 53 74 54 74 55 75 56 76 57 76 58 77 59 77 60 78 61 78 62 79 63 79 64 80 65 81 66 81 67 82 68 82 69 83 70 83 71 84 72 84 73 85 74 86 75 86 76 87 77 87 78 88 79 88 80 89 81 89 82 90 83 91 84 91 85 92 86 92 87 93 88 93 89 94 90 94 91 95 92 96 93 96 94 97 95 97 96 98 97 98 98 99 99 99 100 100 99 99 98 99 97 98 96 98 95 97 94 97 93 96 92 96 91 95 90 94 89 94 88 93 87 93 86 92 85 92 84 91 83 91 82 90 81 89 80 89 79 88 78 88 77 87 76 87 75 86 74 86 73 85 72 84 71 84 70 83 69 83 68 82 67 82 66 81 65 81 64 80 63 79 62 79 61 78 60 78 59 77 58 77 57 76 56 76 55 75 54 74 55 73 56 73 57 74 58 74 59 75 60 75 61 76 62 76 63 77 64 77 65 78 66 78 67 79 68 79 69 80 70 80 71 81 72 81 73 82 74 82 75 83 76 83 77 84 78 84 79 85 80 85 81 86 82 86 83 87 84 87 85 88 86 88 87 89 88 89 89 90 90 90 91 91 92 91 93 92 94 92 95 93 96 93 97 94 98 94 99 95 100 96 101 96 102 97 103 97 104 98 105 98 106 99 107 99 108 100 109 100 110 101 111 101 112 102 113 102 114 103 115 103 116 104 117 104 118 105 119 105 120 106 121 106 122 107 123 107 124 108 125 108 126 109 127 109 128 110 129 110 130 111 131 111 132 112 133 112 134 113 135 113 136 114 137 114 138 115 139 115 140 116 141 116 142 117 143 117 144 118 145 118 146 119 147 119 148 120 149 120 150 121 151 121 152 122 153 122 154 123 155 123 156 124 157 124 158 125 159 125 160 126 161 126 162 127 163 127 164 128 165 128 166 129 167 129 168 130 169 130 170 131 171 131 172 132 173 132 174 133 175 133 176 134 177 134 178 135 179 135 180 136 181 136 182 137 183 137 184 138 185 138 186 139 187 139 188 140 189 141 190 141 191 142 192 142 193 143 194 143 195 144 196 144 197 145 198 145 199 146 200 146 201 147 202 147 203 148 204 148 205 149 206 149 207 150 208 150 209 151 210 151 211 152 212 152 213 153 214 153 215 154 216 154 217 155 218 155 219 156 220 156 221 157 222 157 223 158 224 158 225 159 226 159 227 160 228 160 229 161 230 161 231 162 232 162 233 163 234 163 235 164 236 164 237 165 238 165 239 166 240 166 241 167 242 167 243 168 244 168 245 169 246 169 247 170 248 170 249 171 250 171 251 172 252 172 253 173 254 173 255 174 256 174 257 175 258 175 259 176 260 176 261 177 262 177 263 178 264 178 265 179 266 179 267 180 268 180 269 181 270 181 271 182 272 182 273 183 274 183 275 184 276 184 277 185 278 186 279 186 280 187 281 187 282 188 283 188 284 189 285 189 286 190 287 190 288 191 289 191 290 192 291 192 292 193 293 193 294 194 295 194 296 195 297 195 298 196 299 196 300 197 301 197 302 198 303 198 304 199 305 199 306 200 307 200 308 201 309 201 310 202 311 202 312 203 313 203 314 204 315 204 316 205 317 205 318 206 319 206 320 207 321 207 322 208 323 208 324 209 325 209 326 210 327 210 328 211 329 211 330 212 331 212 332 213 333 213 334 214 335 214 336 215 337 215 338 216 339 216 340 217 341 217 342 218 343 218 344 219 345 219 346 220 347 220 348 221 349 221 350 222 351 222 352 223 353 223 354 224 355 224 356 225 357 225 358 226 359 226 360 227 361 227 362 228 363 228 364 229 365 229 366 230 367 231 368 231 369 232 370 232 371 233 372 233 373 234 374 234 375 235 376 235 377 236 378 236 379 237 380 237 381 238 382 238 383 239 384 239 385 240 386 240 387 241 388 241 389 242 390 242 391 243 392 243 393 244 394 244 395 245 396 245 397 246 398 246 399 247 400 247 401 248 402 248 403 249 404 249 405 250 406 250 407 251 408 251 409 252 410 252 411 253 412 253 413 254 414 254 415 255 416 255 417 256 418 256 419 257 420 257 421 258 422 258 423 259 424 259 425 260 426 260 427 261 428 261 429 262 430 262 431 263 432 263 433 264 434 264 435 265 436 265 437 266 438 266 439 267 440 267 441 268 442 268 443 269 444 269 445 270 446 270 447 271 448 271 449 272 450 272 451 273 452 273 453 274 454 274 455 275 456 276 457 276 458 277 459 277 460 278 461 278 462 279 463 279 464 280 465 280 466 281 467 281 468 282 469 282 470 283 471 283 472 284 473 284 474 285 475 285 476 286 477 286 478 287 479 287 480 288 481 288 482 289 483 289 484 290 485 290 486 291 487 291 488 292 489 292 490 293 491 293 492 294 493 294 494 295 495 295 496 296 497 296 498 297 499 297 500 298 501 298 502 299 503 299 504 300 505 300 506 301 507 301 508 302 509 302 510 303 511 303 512 304 513 304 514 305 515 305 516 306 517 306 518 307 519 307 520 308 521 308 522 309 523 309 524 310 525 310 526 311 527 311 528 312 529 312 530 313 531 313 532 314 533 314 534 315 535 315 536 316 537 316 538 317 539 317 540 318 541 318 542 319 543 319 544 320 545 321 546 321 547 322 548 322 549 323 550 323 551 324 552 324 553 325 554 325 555 326 556 326 557 327 558 327 559 328 560 328 561 329 562 329 563 330 564 330 565 331 566 331 567 332 568 332 569 333 570 333 571 334 572 334 573 335 574 335 575 336 576 336 577 337 578 337 579 338 580 338 581 339 582 339 583 340 584 340 585 341 586 341 587 342 588 342 589 343 590 343 591 344 592 344 593 345 594 345 595 346 596 346 597 347 598 347 599 348 600 348 601 349 602 349 603 350 604 350 605 351 606 351 607 352 608 352 609 353 610 353 611 354 612 354 613 355 614 355 615 356 616 356 617 357 618 357 619 358 620 358 621 359 622 359 623 360 624 360 625 361 626 361 627 362 628 362 629 363 630 363 631 364 632 364 633 365 634 366 635 366 636 367 637 367 638 368 639 368 640 369 641 369 642 370 643 370 644 371 645 371 646 372 647 372 648 373 649 373 650 374 651 374 652 375 653 375 654 376 655 376 656 377 657 377 658 378 659 378 660 379 661 379 662 380 663 380 664 381 665 381 666 382 667 382 668 383 669 383 670 384 671 384 672 385 673 385 674 386 675 386 676 387 677 387 678 388 679 388 680 389 681 389 682 390 683 390 684 391 685 391 686 392 687 392 688 393 689 393 690 394 691 394 692 395 693 395 694 396 695 396 696 397 697 397 698 398 699 398 700 399 701 399 702 400 703 400 704 401 705 401 706 402 707 402 708 403 709 403 710 404 711 404 712 405 713 405 714 406 715 406 716 407 717 407 718 408 719 408 720 409 721 409 722 410 723 411 724 411 725 412 726 412 727 413 728 413 729 414 730 414 731 415 732 415 733 416 734 416 735 417 736 417 737 418 738 418 739 419 740 419 741 420 742 420 743 421 744 421 745 422 746 422 747 423 748 423 749 424 750 424 751 425 752 425 753 426 754 426 755 427 756 427 757 428 758 428 759 429 760 429 761 430 762 430 763 431 764 431 765 432 766 432 767 433 768 433 769 434 770 434 771 435 772 435 773 436 774 436 775 437 776 437 777 438 778 438 779 439 780 439 781 440 782 440 783 441 784 441 785 442 786 442 787 443 788 443 789 444 790 444 791 445 792 445 793 446 794 446 795 447 796 447 797 448 798 448 799 449 800 449 801 450 802 450 803 451 804 451 805 452 806 452 807 453 808 453 809 454 810 454 811 455 812 456 813 456 814 457 815 457 816 458 817 458 818 459 819 459 820 460 821 460 822 461 823 461 824 462 825 462 826 463 827 463 828 464 829 464 830 465 831 465 832 466 833 466 834 467 835 467 836 468 837 468 838 469 839 469 840 470 841 470 842 471 843 471 844 472 845 472 846 473 847 473 848 474 849 474 850 475 851 475 852 476 853 476 854 477 855 477 856 478 857 478 858 479 859 479 860 480 861 480 862 481 863 481 864 482 863 483 862 483 861 483 860 482 859 482 858 481 857 481 856 480 855 480 854 479 853 479 852 479 851 478 850 478 849 477 848 477 847 476 846 476 845 475 844 475 843 475 842 474 841 474 840 473 839 473 838 472 837 472 836 471 835 471 834 471 833 470 832 470 831 469 830 469 829 468 828 468 827 467 826 467 825 467 824 466 823 466 822 465 821 465 820 464 819 464 818 463 817 463 816 462 815 462 814 462 813 461 812 461 811 460 810 460 809 459 808 459 807 458 806 458 805 458 804 457 803 457 802 456 801 456 800 455 799 455 798 454 797 454 796 454 795 453 794 453 793 452 792 452 791 451 790 451 789 450 788 450 787 450 786 449 785 449 784 448 783 448 782 447 781 447 780 446 779 446 778 446 777 445 776 445 775 444 774 444 773 443 772 443 771 442 770 442 769 442 768 441 767 441 766 440 765 440 764 439 763 439 762 438 761 438 760 437 759 437 758 437 757 436 756 436 755 435 754 435 753 434 752 434 751 433 750 433 749 433 748 432 747 432 746 431 745 431 744 430 743 430 742 429 741 429 740 429 739 428 738 428 737 427 736 427 735 426 734 426 733 425 732 425 731 425 730 424 729 424 728 423 727 423 726 422 725 422 724 421 723 421 722 421 721 420 720 420 719 419 718 419 717 418 716 418 715 417 714 417 713 417 712 416 711 416 710 415 709 415 708 414 707 414 706 413 705 413 704 412 703 412 702 412 701 411 700 411 699 410 698 410 697 409 696 409 695 408 694 408 693 408 692 407 691 407 690 406 689 406 688 405 687 405 686 404 685 404 684 404 683 403 682 403 681 402 680 402 679 401 678 401 677 400 676 400 675 400 674 399 673 399 672 398 671 398 670 397 669 397 668 396 667 396 666 396 665 395 664 395 663 394 662 394 661 393 660 393 659 392 658 392 657 392 656 391 655 391 654 390 653 390 652 389 651 389 650 388 649 388 648 387 647 387 646 387 645 386 644 386 643 385 642 385 641 384 640 384 639 383 638 383 637 383 636 382 635 382 634 381 633 381 632 380 631 380 630 379 629 379 628 379 627 378 626 378 625 377 624 377 623 376 622 376 621 375 620 375 619 375 618 374 617 374 616 373 615 373 614 372 613 372 612 371 611 371 610 371 609 370 608 370 607 369 606 369 605 368 604 368 603 367 602 367 601 367 600 366 599 366 598 365 597 365 596 364 595 364 594 363 593 363 592 362 591 362 590 362 589 361 588 361 587 360 586 360 585 359 584 359 583 358 582 358 581 358 580 357 579 357 578 356 577 356 576 355 575 355 574 354 573 354 572 354 571 353 570 353 569 352 568 352 567 351 566 351 565 350 564 350 563 350 562 349 561 349 560 348 559 348 558 347 557 347 556 346 555 346 554 346 553 345 552 345 551 344 550 344 549 343 548 343 547 342 546 342 545 342 544 341 543 341 542 340 541 340 540 339 539 339 538 338 537 338 536 337 535 337 534 337 533 336 532 336 531 335 530 335 529 334 528 334 527 333 526 333 525 333 524 332 523 332 522 331 521 331 520 330 519 330 518 329 517 329 516 329 515 328 514 328 513 327 512 327 511 326 510 326 509 325 508 325 507 325 506 324 505 324 504 323 503 323 502 322 501 322 500 321 499 321 498 321 497 320 496 320 495 319 494 319 493 318 492 318 491 317 490 317 489 317 488 316 487 316 486 315 485 315 484 314 483 314 482 313 481 313 480 312 479 312 478 312 477 311 476 311 475 310 474 310 473 309 472 309 471 308 470 308 469 308 468 307 467 307 466 306 465 306 464 305 463 305 462 304 461 304 460 304 459 303 458 303 457 302 456 302 455 301 454 301 453 300 452 300 451 300 450 299 449 299 448 298 447 298 446 297 445 297 444 296 443 296 442 296 441 295 440 295 439 294 438 294 437 293 436 293 435 292 434 292 433 292 432 291 431 291 430 290 429 290 428 289 427 289 426 288 425 288 424 287 423 287 422 287 421 286 420 286 419 285 418 285 417 284 416 284 415 283 414 283 413 283 412 282 411 282 410 281 409 281 408 280 407 280 406 279 405 279 404 279 403 278 402 278 401 277 400 277 399 276 398 276 397 275 396 275 395 275 394 274 393 274 392 273 391 273 390 272 389 272 388 271 387 271 386 271 385 270 384 270 383 269 382 269 381 268 380 268 379 267 378 267 377 267 376 266 375 266 374 265 373 265 372 264 371 264 370 263 369 263 368 262 367 262 366 262 365 261 364 261 363 260 362 260 361 259 360 259 359 258 358 258 357 258 356 257 355 257 354 256 353 256 352 255 351 255 350 254 " stroke ="green" stroke-width="5"/></svg>