<svg viewBox="-2000 -2000 6000 6000" fill="white" fill-opacity="0" width="1000" height="1000" xmlns="http://www.w3.org/2000/svg" version="1.1"><path d="M379 230 378 231 377 231 376 231 375 231 374 232 373 232 372 232 371 232 370 233 369 233 368 233 367 233 366 234 365 234 364 234 363 234 362 235 361 235 360 235 359 236 358 236 357 236 356 236 355 237 354 237 353 237 352 237 351 238 350 238 349 238 348 238 347 239 346 239 345 239 344 239 343 240 342 240 341 240 340 241 339 241 338 241 337 241 336 242 335 242 334 242 333 242 332 243 331 243 330 243 329 243 328 244 327 244 326 244 325 244 324 245 323 245 322 245 321 246 320 246 319 246 318 246 317 247 316 247 315 247 314 247 313 248 312 248 311 248 310 248 309 249 308 249 307 249 306 249 305 250 304 250 303 250 302 251 301 251 300 251 299 251 298 252 297 252 296 252 295 252 294 253 293 253 292 253 291 253 290 254 289 254 288 254 287 254 286 255 285 255 284 255 283 256 282 256 281 256 280 256 279 257 278 257 277 257 276 257 275 258 274 258 273 258 272 258 271 259 270 259 269 259 268 259 267 260 266 260 265 260 264 261 263 261 262 261 261 261 260 262 259 262 258 262 257 262 256 263 255 263 254 263 253 263 252 264 251 264 250 264 249 264 248 265 247 265 246 265 245 266 244 266 243 266 242 266 241 267 240 267 239 267 238 267 237 268 236 268 235 268 234 268 233 269 232 269 231 269 230 269 229 270 228 270 227 270 226 271 225 271 224 271 223 271 222 272 221 272 220 272 219 272 218 273 217 273 216 273 215 273 214 274 213 274 212 274 211 274 210 275 209 275 208 275 207 276 206 276 205 276 204 276 203 277 202 277 201 277 200 277 199 278 198 278 197 278 196 278 195 279 194 279 193 279 192 279 191 280 190 280 190 281 190 282 191 283 191 284 191 285 191 286 192 287 192 288 192 289 192 290 192 291 193 292 193 293 193 294 193 295 194 296 194 297 194 298 194 299 195 300 195 301 195 302 195 303 195 304 196 305 196 306 196 307 196 308 197 309 197 310 197 311 197 312 197 313 198 314 198 315 198 316 198 317 199 318 199 319 199 320 199 321 200 322 200 323 200 324 200 325 200 326 201 327 201 328 201 329 201 330 202 331 202 332 202 333 202 334 202 335 203 336 203 337 203 338 203 339 204 340 204 341 204 342 204 343 205 344 205 345 205 346 205 347 205 348 206 349 206 350 206 351 206 352 207 353 207 354 207 355 207 356 207 357 208 358 208 359 208 360 208 361 209 362 209 363 209 364 209 365 210 366 210 367 210 368 210 369 210 370 211 371 211 372 211 373 211 374 212 375 212 376 212 377 212 378 212 379 213 380 213 381 213 382 213 383 214 384 214 385 214 386 214 387 215 388 215 389 215 390 215 391 215 392 216 393 216 394 216 395 216 396 217 397 217 398 217 399 217 400 217 401 218 402 218 403 218 404 218 405 219 406 219 407 219 408 219 409 220 410 220 411 220 412 220 413 220 414 221 415 221 416 221 417 221 418 222 419 222 420 222 421 222 422 222 423 223 424 223 425 223 426 223 427 224 428 224 429 224 430 224 431 225 432 225 433 225 434 225 435 225 436 226 437 226 438 226 439 226 440 227 441 227 442 227 443 227 444 227 445 228 446 228 447 228 448 228 449 229 450 229 451 229 452 229 453 230 454 230 455 230 456 230 457 230 458 231 459 231 460 231 461 231 462 232 463 232 464 232 465 232 466 232 467 233 468 233 469 233 470 233 471 234 472 234 473 234 474 234 475 235 476 235 477 235 478 235 479 235 480 236 481 236 482 236 483 236 484 237 485 237 486 237 487 237 488 237 489 238 490 238 491 238 492 238 493 239 494 239 495 239 496 239 497 240 498 240 499 240 500 241 499 241 498 242 497 242 496 243 495 243 494 244 493 244 492 245 491 245 490 246 489 246 488 247 487 247 486 248 485 248 484 249 483 249 482 250 481 250 480 251 479 251 478 252 477 252 476 253 475 253 474 254 473 255 472 255 471 256 470 256 469 257 468 257 467 258 466 258 465 259 464 259 463 260 462 260 461 261 460 261 459 262 458 262 457 263 456 263 455 264 454 264 453 265 452 265 451 266 450 266 449 267 448 267 447 268 446 269 445 269 444 270 443 270 442 271 441 271 440 272 439 272 438 273 437 273 436 274 435 274 434 275 433 275 432 276 431 276 430 277 429 277 428 278 427 278 426 279 425 279 424 280 423 280 422 281 421 281 420 282 419 283 418 283 417 284 416 284 415 285 414 285 413 286 412 286 411 287 410 287 409 288 408 288 407 289 406 289 405 290 404 290 403 291 402 291 401 292 400 292 399 293 398 293 397 294 396 294 395 295 394 295 393 296 392 297 391 297 390 298 389 298 388 299 387 299 386 300 385 300 384 301 383 301 382 302 381 302 380 303 379 303 378 304 377 304 376 305 375 305 374 306 373 306 372 307 371 307 370 308 369 308 368 309 367 309 366 310 365 311 364 311 363 312 362 312 361 313 360 313 359 314 358 314 357 315 356 315 355 316 354 316 353 317 352 317 351 318 350 318 349 319 348 319 347 320 346 320 345 321 344 321 343 322 342 322 341 323 340 323 339 324 338 325 337 325 336 326 335 326 334 327 333 327 332 328 331 328 330 329 329 329 328 330 327 330 326 331 325 331 324 332 323 332 322 333 321 333 320 334 319 334 318 335 317 335 316 336 315 336 314 337 313 337 312 338 311 339 310 339 309 340 308 340 307 341 306 341 305 342 304 342 303 343 302 343 301 344 300 344 299 345 298 345 297 346 296 346 295 347 294 347 293 348 292 348 291 349 290 349 289 350 288 350 287 351 286 351 285 352 284 353 283 353 282 354 281 354 280 355 279 355 278 356 277 356 276 357 275 357 274 358 273 358 272 359 271 359 270 360 269 360 268 361 267 361 266 362 265 362 264 363 263 363 262 364 261 364 260 365 259 365 258 366 257 367 256 367 255 368 254 368 253 369 252 369 251 370 250 370 249 371 248 371 247 372 246 372 245 373 244 373 243 374 242 374 241 375 240 375 239 376 238 376 237 377 236 377 235 378 234 378 233 379 232 379 231 380 230 " stroke ="green" stroke-width="5"/></svg>